<mxfile host="app.diagrams.net" modified="2022-05-03T14:55:52.401Z" agent="5.0 (Windows NT 10.0; Win64; x64) AppleWebKit/537.36 (KHTML, like Gecko) Chrome/101.0.4951.54 Safari/537.36" etag="_Uh5deMdQ5_Ov2qCtGcx" version="17.5.0" type="github">
  <diagram id="108UbA3sxORy53v74kxP" name="Page-1">
    <mxGraphModel dx="1038" dy="513" grid="1" gridSize="10" guides="1" tooltips="1" connect="1" arrows="1" fold="1" page="1" pageScale="1" pageWidth="827" pageHeight="1169" math="0" shadow="0">
      <root>
        <mxCell id="0" />
        <mxCell id="1" parent="0" />
        <mxCell id="VS7swGzfhRmDIqCCGKBI-3" value="Instagram&lt;br&gt;Sophie&lt;br&gt;Hasslauer" style="ellipse;whiteSpace=wrap;html=1;aspect=fixed;" vertex="1" parent="1">
          <mxGeometry x="510" y="80" width="80" height="80" as="geometry" />
        </mxCell>
        <mxCell id="VS7swGzfhRmDIqCCGKBI-7" value="Site web" style="whiteSpace=wrap;html=1;aspect=fixed;" vertex="1" parent="1">
          <mxGeometry x="470" y="240" width="80" height="80" as="geometry" />
        </mxCell>
        <mxCell id="VS7swGzfhRmDIqCCGKBI-8" value="Site web" style="whiteSpace=wrap;html=1;aspect=fixed;" vertex="1" parent="1">
          <mxGeometry x="200" y="240" width="80" height="80" as="geometry" />
        </mxCell>
        <mxCell id="VS7swGzfhRmDIqCCGKBI-9" value="Chaine&lt;br&gt;Youtube" style="ellipse;whiteSpace=wrap;html=1;aspect=fixed;" vertex="1" parent="1">
          <mxGeometry x="334" y="140" width="80" height="80" as="geometry" />
        </mxCell>
        <mxCell id="VS7swGzfhRmDIqCCGKBI-10" value="FECIT-toolbox.org" style="text;html=1;align=center;verticalAlign=middle;resizable=0;points=[];autosize=1;strokeColor=none;fillColor=none;" vertex="1" parent="1">
          <mxGeometry x="30" y="270" width="110" height="20" as="geometry" />
        </mxCell>
        <mxCell id="VS7swGzfhRmDIqCCGKBI-11" value="sophiehasslauer.net" style="text;html=1;align=center;verticalAlign=middle;resizable=0;points=[];autosize=1;strokeColor=none;fillColor=none;" vertex="1" parent="1">
          <mxGeometry x="610" y="270" width="120" height="20" as="geometry" />
        </mxCell>
        <mxCell id="VS7swGzfhRmDIqCCGKBI-12" value="Facebook&lt;br&gt;Sophie&lt;br&gt;Hasslauer" style="ellipse;whiteSpace=wrap;html=1;aspect=fixed;" vertex="1" parent="1">
          <mxGeometry x="510" y="400" width="80" height="80" as="geometry" />
        </mxCell>
        <mxCell id="VS7swGzfhRmDIqCCGKBI-13" value="Facebook&lt;br&gt;FECIT&lt;br&gt;toolbox" style="ellipse;whiteSpace=wrap;html=1;aspect=fixed;" vertex="1" parent="1">
          <mxGeometry x="160" y="400" width="80" height="80" as="geometry" />
        </mxCell>
        <mxCell id="VS7swGzfhRmDIqCCGKBI-14" value="Instagram&lt;br&gt;FECIT&lt;br&gt;toolbox" style="ellipse;whiteSpace=wrap;html=1;aspect=fixed;" vertex="1" parent="1">
          <mxGeometry x="160" y="80" width="80" height="80" as="geometry" />
        </mxCell>
        <mxCell id="VS7swGzfhRmDIqCCGKBI-15" value="" style="endArrow=none;html=1;rounded=0;entryX=0;entryY=1;entryDx=0;entryDy=0;exitX=1;exitY=0.5;exitDx=0;exitDy=0;" edge="1" parent="1" source="VS7swGzfhRmDIqCCGKBI-9" target="VS7swGzfhRmDIqCCGKBI-3">
          <mxGeometry width="50" height="50" relative="1" as="geometry">
            <mxPoint x="390" y="270" as="sourcePoint" />
            <mxPoint x="440" y="220" as="targetPoint" />
          </mxGeometry>
        </mxCell>
        <mxCell id="VS7swGzfhRmDIqCCGKBI-17" value="" style="endArrow=none;html=1;rounded=0;entryX=0;entryY=0.5;entryDx=0;entryDy=0;exitX=1;exitY=1;exitDx=0;exitDy=0;" edge="1" parent="1" source="VS7swGzfhRmDIqCCGKBI-14" target="VS7swGzfhRmDIqCCGKBI-9">
          <mxGeometry width="50" height="50" relative="1" as="geometry">
            <mxPoint x="250" y="135.86" as="sourcePoint" />
            <mxPoint x="357.71572875253787" y="104.14427124746213" as="targetPoint" />
          </mxGeometry>
        </mxCell>
        <mxCell id="VS7swGzfhRmDIqCCGKBI-18" value="" style="endArrow=none;html=1;rounded=0;entryX=0;entryY=0.363;entryDx=0;entryDy=0;exitX=1.005;exitY=0.363;exitDx=0;exitDy=0;exitPerimeter=0;entryPerimeter=0;" edge="1" parent="1" source="VS7swGzfhRmDIqCCGKBI-14" target="VS7swGzfhRmDIqCCGKBI-3">
          <mxGeometry width="50" height="50" relative="1" as="geometry">
            <mxPoint x="260.00427124746193" y="80.0042712474619" as="sourcePoint" />
            <mxPoint x="365.72" y="111.72" as="targetPoint" />
          </mxGeometry>
        </mxCell>
        <mxCell id="VS7swGzfhRmDIqCCGKBI-19" value="" style="endArrow=none;html=1;rounded=0;entryX=0;entryY=0.5;entryDx=0;entryDy=0;" edge="1" parent="1" source="VS7swGzfhRmDIqCCGKBI-9">
          <mxGeometry width="50" height="50" relative="1" as="geometry">
            <mxPoint x="364.2842712474619" y="250.0042712474619" as="sourcePoint" />
            <mxPoint x="470" y="281.72" as="targetPoint" />
          </mxGeometry>
        </mxCell>
        <mxCell id="VS7swGzfhRmDIqCCGKBI-20" value="" style="endArrow=none;html=1;rounded=0;entryX=1;entryY=0.5;entryDx=0;entryDy=0;exitX=0;exitY=1;exitDx=0;exitDy=0;" edge="1" parent="1" source="VS7swGzfhRmDIqCCGKBI-9" target="VS7swGzfhRmDIqCCGKBI-8">
          <mxGeometry width="50" height="50" relative="1" as="geometry">
            <mxPoint x="299.99752176296437" y="210.00280935478554" as="sourcePoint" />
            <mxPoint x="368.44" y="282.73" as="targetPoint" />
          </mxGeometry>
        </mxCell>
        <mxCell id="VS7swGzfhRmDIqCCGKBI-21" value="" style="endArrow=none;html=1;rounded=0;entryX=0;entryY=1;entryDx=0;entryDy=0;exitX=0;exitY=0;exitDx=0;exitDy=0;" edge="1" parent="1" source="VS7swGzfhRmDIqCCGKBI-13" target="VS7swGzfhRmDIqCCGKBI-14">
          <mxGeometry width="50" height="50" relative="1" as="geometry">
            <mxPoint x="120" y="205" as="sourcePoint" />
            <mxPoint x="170" y="155" as="targetPoint" />
          </mxGeometry>
        </mxCell>
        <mxCell id="VS7swGzfhRmDIqCCGKBI-22" value="" style="endArrow=none;html=1;rounded=0;entryX=0;entryY=0.363;entryDx=0;entryDy=0;exitX=1.005;exitY=0.363;exitDx=0;exitDy=0;exitPerimeter=0;entryPerimeter=0;" edge="1" parent="1">
          <mxGeometry width="50" height="50" relative="1" as="geometry">
            <mxPoint x="240.4000000000001" y="449.99999999999994" as="sourcePoint" />
            <mxPoint x="510" y="449.99999999999994" as="targetPoint" />
          </mxGeometry>
        </mxCell>
        <mxCell id="VS7swGzfhRmDIqCCGKBI-23" value="" style="endArrow=none;html=1;rounded=0;entryX=1;entryY=1;entryDx=0;entryDy=0;exitX=1;exitY=0;exitDx=0;exitDy=0;" edge="1" parent="1" source="VS7swGzfhRmDIqCCGKBI-12" target="VS7swGzfhRmDIqCCGKBI-3">
          <mxGeometry width="50" height="50" relative="1" as="geometry">
            <mxPoint x="588.9957287525381" y="403.4357287525381" as="sourcePoint" />
            <mxPoint x="588.9957287525381" y="150.0042712474619" as="targetPoint" />
          </mxGeometry>
        </mxCell>
        <mxCell id="VS7swGzfhRmDIqCCGKBI-24" value="" style="endArrow=none;html=1;rounded=0;entryX=0.5;entryY=1;entryDx=0;entryDy=0;exitX=1;exitY=0;exitDx=0;exitDy=0;" edge="1" parent="1" source="VS7swGzfhRmDIqCCGKBI-13" target="VS7swGzfhRmDIqCCGKBI-9">
          <mxGeometry width="50" height="50" relative="1" as="geometry">
            <mxPoint x="320" y="320" as="sourcePoint" />
            <mxPoint x="370" y="270" as="targetPoint" />
          </mxGeometry>
        </mxCell>
        <mxCell id="VS7swGzfhRmDIqCCGKBI-25" value="" style="endArrow=none;html=1;rounded=0;entryX=0.5;entryY=1;entryDx=0;entryDy=0;exitX=0;exitY=0;exitDx=0;exitDy=0;" edge="1" parent="1" source="VS7swGzfhRmDIqCCGKBI-12" target="VS7swGzfhRmDIqCCGKBI-9">
          <mxGeometry width="50" height="50" relative="1" as="geometry">
            <mxPoint x="238.2842712474619" y="411.7157287525381" as="sourcePoint" />
            <mxPoint x="384" y="230" as="targetPoint" />
          </mxGeometry>
        </mxCell>
        <mxCell id="VS7swGzfhRmDIqCCGKBI-26" value="" style="endArrow=none;html=1;rounded=0;entryX=0.5;entryY=1;entryDx=0;entryDy=0;exitX=0.5;exitY=0;exitDx=0;exitDy=0;" edge="1" parent="1" source="VS7swGzfhRmDIqCCGKBI-7" target="VS7swGzfhRmDIqCCGKBI-3">
          <mxGeometry width="50" height="50" relative="1" as="geometry">
            <mxPoint x="485" y="220" as="sourcePoint" />
            <mxPoint x="535" y="170" as="targetPoint" />
          </mxGeometry>
        </mxCell>
        <mxCell id="VS7swGzfhRmDIqCCGKBI-27" value="" style="endArrow=none;html=1;rounded=0;entryX=0.5;entryY=1;entryDx=0;entryDy=0;exitX=0.5;exitY=0;exitDx=0;exitDy=0;" edge="1" parent="1" source="VS7swGzfhRmDIqCCGKBI-13" target="VS7swGzfhRmDIqCCGKBI-8">
          <mxGeometry width="50" height="50" relative="1" as="geometry">
            <mxPoint x="210" y="380" as="sourcePoint" />
            <mxPoint x="240" y="310" as="targetPoint" />
          </mxGeometry>
        </mxCell>
        <mxCell id="VS7swGzfhRmDIqCCGKBI-28" value="" style="endArrow=none;html=1;rounded=0;entryX=0.5;entryY=0;entryDx=0;entryDy=0;exitX=0.5;exitY=1;exitDx=0;exitDy=0;" edge="1" parent="1" source="VS7swGzfhRmDIqCCGKBI-7" target="VS7swGzfhRmDIqCCGKBI-12">
          <mxGeometry width="50" height="50" relative="1" as="geometry">
            <mxPoint x="490" y="340" as="sourcePoint" />
            <mxPoint x="450" y="420" as="targetPoint" />
          </mxGeometry>
        </mxCell>
        <mxCell id="VS7swGzfhRmDIqCCGKBI-29" value="" style="endArrow=none;html=1;rounded=0;entryX=0.5;entryY=1;entryDx=0;entryDy=0;exitX=0.5;exitY=0;exitDx=0;exitDy=0;" edge="1" parent="1" source="VS7swGzfhRmDIqCCGKBI-8" target="VS7swGzfhRmDIqCCGKBI-14">
          <mxGeometry width="50" height="50" relative="1" as="geometry">
            <mxPoint x="190" y="260" as="sourcePoint" />
            <mxPoint x="230" y="180" as="targetPoint" />
          </mxGeometry>
        </mxCell>
      </root>
    </mxGraphModel>
  </diagram>
</mxfile>
